<?xml version="1.0" encoding="UTF-8" standalone="no"?>
<!-- Created with Inkscape (http://www.inkscape.org/) -->

<svg
   xmlns:dc="http://purl.org/dc/elements/1.1/"
   xmlns:cc="http://creativecommons.org/ns#"
   xmlns:rdf="http://www.w3.org/1999/02/22-rdf-syntax-ns#"
   xmlns:svg="http://www.w3.org/2000/svg"
   xmlns="http://www.w3.org/2000/svg"
   xmlns:sodipodi="http://sodipodi.sourceforge.net/DTD/sodipodi-0.dtd"
   xmlns:inkscape="http://www.inkscape.org/namespaces/inkscape"
   version="1.1"
   id="svg2"
   xml:space="preserve"
   width="80.490662mm"
   height="33.490658mm"
   viewBox="0 0 304.21668 126.57887"
   sodipodi:docname="jumpers.svg"
   inkscape:version="0.92.4 (5da689c313, 2019-01-14)"><metadata
     id="metadata8"><rdf:RDF><cc:Work
         rdf:about=""><dc:format>image/svg+xml</dc:format><dc:type
           rdf:resource="http://purl.org/dc/dcmitype/StillImage" /><dc:title></dc:title></cc:Work></rdf:RDF></metadata><defs
     id="defs6" /><sodipodi:namedview
     pagecolor="#ffffff"
     bordercolor="#666666"
     borderopacity="1"
     objecttolerance="10"
     gridtolerance="10"
     guidetolerance="10"
     inkscape:pageopacity="0"
     inkscape:pageshadow="2"
     inkscape:window-width="1920"
     inkscape:window-height="1057"
     id="namedview4"
     showgrid="false"
     inkscape:document-units="mm"
     units="mm"
     inkscape:zoom="0.9390129"
     inkscape:cx="-319.3377"
     inkscape:cy="-374.17535"
     inkscape:window-x="-8"
     inkscape:window-y="-8"
     inkscape:window-maximized="1"
     inkscape:current-layer="g10" /><g
     id="g10"
     inkscape:groupmode="layer"
     inkscape:label="jumpers small"
     transform="matrix(1.3333333,0,0,1.3333333,-787.79487,253.06416)"><path
       d="M 0.027,0.027 H 367.355 V 226.8 H 0.027 Z"
       style="fill:#000000;stroke:none;stroke-width:0.56692916;stroke-linecap:butt;stroke-linejoin:round;stroke-miterlimit:4;stroke-dasharray:none;stroke-opacity:1;fill-opacity:1"
       id="path136"
       inkscape:connector-curvature="0" /><path
       style="fill:#000000;stroke:none;stroke-width:0.75590553;stroke-linecap:butt;stroke-linejoin:round;stroke-miterlimit:4;stroke-dasharray:none;stroke-opacity:1;fill-opacity:1"
       d="m 1004.4258,140.33398 v 7.56055 h -12.47268 v 15.11914 h 12.47268 v 28.90039 h -12.47268 v 15.11914 h 12.47268 v 28.90039 h -12.47268 v 15.11914 h 12.47268 v 28.90039 h -12.47268 v 15.1211 h 12.47268 v 7.55664 h 72.6367 c 3.2133,0 5.8066,-2.58993 5.8066,-5.80859 v -5.11524 c -0.025,-2.244 -4.0355,-2.3436 -6.1289,-2.32226 -2.0626,0.0267 -6.125,0.58398 -6.125,0.58398 h -54.4121 c 0,0 -1.9277,-0.15232 -1.9277,-2.45898 0,-2.30267 1.9277,-2.45313 1.9277,-2.45313 h 54.5371 c 0,0 4.0199,0.32768 6.0625,0.54102 2.156,0.224 6.0824,-0.67717 6.0664,-2.5625 v -4.83204 c 0,-0.59011 -0.088,-1.15966 -0.25,-1.69531 0.1622,-0.53572 0.25,-1.1052 0.25,-1.69531 v -5.11523 c -0.025,-2.244 -4.0355,-2.3436 -6.1289,-2.32227 -2.0626,0.0267 -6.125,0.58398 -6.125,0.58398 h -54.4121 c 0,0 -1.9277,-0.15231 -1.9277,-2.45898 0,-2.30267 1.9277,-2.45312 1.9277,-2.45312 h 54.5371 c 0,0 4.0199,0.32768 6.0625,0.54101 2.156,0.224 6.0824,-0.67717 6.0664,-2.5625 v -4.83203 c 0,-0.59011 -0.088,-1.15966 -0.25,-1.69531 0.1625,-0.53622 0.25,-1.10459 0.25,-1.69532 v -5.11523 c -0.025,-2.244 -4.0355,-2.3436 -6.1289,-2.32227 -2.0626,0.0267 -6.125,0.58399 -6.125,0.58399 h -54.4121 c 0,0 -1.9277,-0.15232 -1.9277,-2.45899 0,-2.30266 1.9277,-2.45312 1.9277,-2.45312 h 54.5371 c 0,0 4.0199,0.32768 6.0625,0.54101 2.156,0.224 6.0824,-0.67716 6.0664,-2.5625 v -4.83203 c 0,-0.59011 -0.088,-1.15966 -0.25,-1.69531 0.1625,-0.53621 0.25,-1.10458 0.25,-1.69531 v -5.11524 c -0.025,-2.244 -4.0355,-2.34359 -6.1289,-2.32226 -2.0626,0.0267 -6.125,0.58398 -6.125,0.58398 h -54.4121 c 0,0 -1.9277,-0.15231 -1.9277,-2.45898 0,-2.30267 1.9277,-2.45313 1.9277,-2.45313 h 54.5371 c 0,0 4.0199,0.32769 6.0625,0.54102 2.156,0.224 6.0824,-0.67717 6.0664,-2.5625 v -4.83203 c 0,-0.59011 -0.088,-1.15966 -0.25,-1.69531 0.1625,-0.53622 0.25,-1.10459 0.25,-1.69532 v -5.11523 c -0.025,-2.244 -4.0355,-2.3436 -6.1289,-2.32227 -2.0626,0.0267 -6.125,0.58399 -6.125,0.58399 h -54.4121 c 0,0 -1.9277,-0.15232 -1.9277,-2.45899 0,-2.30266 1.9277,-2.45312 1.9277,-2.45312 h 54.5371 c 0,0 4.0199,0.32768 6.0625,0.54101 2.156,0.224 6.0824,-0.67716 6.0664,-2.5625 v -4.83398 c 0,-0.59011 -0.088,-1.15771 -0.25,-1.69336 0.1625,-0.53621 0.25,-1.10458 0.25,-1.69531 v -5.11524 c -0.025,-2.244 -4.0355,-2.3436 -6.1289,-2.32226 -2.0626,0.0267 -6.125,0.58398 -6.125,0.58398 h -54.4121 c 0,0 -1.9277,-0.15232 -1.9277,-2.45898 0,-2.30267 1.9277,-2.45313 1.9277,-2.45313 h 54.5371 c 0,0 4.0199,0.32768 6.0625,0.54102 2.156,0.224 6.0824,-0.67717 6.0664,-2.5625 v -4.83399 c 0,-0.59011 -0.088,-1.15771 -0.25,-1.69336 0.1625,-0.53621 0.25,-1.10458 0.25,-1.69531 v -5.11523 c -0.025,-2.244 -4.0355,-2.3436 -6.1289,-2.32227 -2.0626,0.0267 -6.125,0.58399 -6.125,0.58399 h -54.4121 c 0,0 -1.9277,-0.15232 -1.9277,-2.45899 0,-2.30266 1.9277,-2.45312 1.9277,-2.45312 h 54.5371 c 0,0 4.0199,0.32768 6.0625,0.54101 2.156,0.224 6.0824,-0.67716 6.0664,-2.5625 v -4.83398 c 0,-3.21867 -2.5933,-5.80664 -5.8066,-5.80664 z"
       transform="matrix(0.75000002,0,0,0.75000002,0,-4.1750501e-6)"
       id="path140"
       inkscape:connector-curvature="0"
       sodipodi:nodetypes="ccccccccccccccccccssccccsccccscsccccsccccscsccccsccccscsccccsccccscsccccsccccscsccccsccccscsccccsccccscc" /><path
       d="m 372.8415,105.20489 h 367.419 V 226.8455 h -367.419 z"
       style="fill:#000000;stroke:none;stroke-width:0.56692916;stroke-linecap:butt;stroke-linejoin:round;stroke-miterlimit:4;stroke-dasharray:none;stroke-opacity:1;fill-opacity:1"
       id="path272"
       inkscape:connector-curvature="0" /><path
       d="m -75.325921,-3.1856442 v 5.668 h -9.355 V 13.818356 h 9.355 v 11.34 h -9.355 v 11.34 h 9.355 v 11.34 h -9.355 v 11.336 h 9.355 v 11.339 h -9.355 v 11.336 h 9.355 v 11.34 h -9.355 v 11.340004 h 9.355 v 11.34 h -9.355 v 11.336 h 9.355 v 11.34 h -9.355 v 11.339 h 9.355 v 11.336 h -9.355 v 11.34 h 9.355 v 11.34 h -9.355 v 11.336 h 9.355 v 11.34 h -9.355 v 11.34 h 9.355 v 5.668 h 54.477 c 2.41,0 4.355,-1.942 4.355,-4.356 v -3.836 c -0.019,-1.683 -3.027,-2.008 -4.597,-1.992 -1.547,0.02 -4.594,0.688 -4.594,0.688 h -40.809 c 0,0 -1.445,-0.114 -1.445,-1.844 0,-1.727 1.445,-1.84 1.445,-1.84 h 40.903 c 0,0 3.015,0.645 4.547,0.805 1.617,0.168 4.562,-0.907 4.55,-2.321 v -3.625 c 0,-2.414 -1.945,-4.355 -4.355,-4.355 2.41,0 4.355,-1.945 4.355,-4.356 v -3.839 c -0.019,-1.684 -3.027,-2.008 -4.597,-1.989 -1.547,0.016 -4.594,0.688 -4.594,0.688 h -40.809 c 0,0 -1.445,-0.117 -1.445,-1.844 0,-1.727 1.445,-1.844 1.445,-1.844 h 40.903 c 0,0 3.015,0.645 4.547,0.809 1.617,0.168 4.562,-0.91 4.55,-2.32 v -3.625 c 0,-2.414 -1.945,-4.356 -4.355,-4.356 2.41,0 4.355,-1.945 4.355,-4.359 v -3.836 c -0.019,-1.684 -3.027,-2.008 -4.597,-1.988 -1.547,0.015 -4.594,0.683 -4.594,0.683 h -40.809 c 0,0 -1.445,-0.113 -1.445,-1.84 0,-1.73 1.445,-1.843 1.445,-1.843 h 40.903 c 0,0 3.015,0.644 4.547,0.804 1.617,0.172 4.562,-0.906 4.55,-2.32 v -3.625 c 0,-2.41 -1.945,-4.356 -4.355,-4.356 2.41,0 4.355,-1.941 4.355,-4.355 v -3.84 c -0.019,-1.68 -3.027,-2.004 -4.597,-1.988 -1.547,0.015 -4.594,0.687 -4.594,0.687 h -40.809 c 0,0 -1.445,-0.117 -1.445,-1.843 0,-1.727 1.445,-1.84 1.445,-1.84 h 40.903 c 0,0 3.015,0.644 4.547,0.804 1.617,0.168 4.562,-0.906 4.55,-2.32 v -3.625 c 0,-2.414 -1.945,-4.355 -4.355,-4.355 2.41,0 4.355,-1.946 4.355,-4.356 v -3.84 c -0.019,-1.683 -3.027,-2.007 -4.597,-1.988 -1.547,0.016 -4.594,0.688 -4.594,0.688 h -40.809 c 0,0 -1.445,-0.118 -1.445,-1.844 0,-1.727 1.445,-1.844 1.445,-1.844 h 40.903 c 0,0 3.015,0.645 4.547,0.805 1.617,0.172 4.562,-0.907 4.55,-2.321 v -3.621 c 0,-2.414 -1.945,-4.359 -4.355,-4.359 2.41,0 4.355,-1.941 4.355,-4.356 v -3.835 c -0.019,-1.684 -3.027,-2.008004 -4.597,-1.993 -1.547,0.02 -4.594,0.688 -4.594,0.688 h -40.809 c 0,0 -1.445,-0.113 -1.445,-1.840004 0,-1.73 1.445,-1.844 1.445,-1.844 h 40.903 c 0,0 3.015,0.645 4.547,0.805 1.617,0.168 4.562,-0.906 4.55,-2.32 v -3.625 c 0,-2.414 -1.945,-4.356 -4.355,-4.356 2.41,0 4.355,-1.941 4.355,-4.355 v -3.84 c -0.019,-1.684 -3.027,-2.004 -4.597,-1.988 -1.547,0.015 -4.594,0.687 -4.594,0.687 h -40.809 c 0,0 -1.445,-0.117 -1.445,-1.844 0,-1.726 1.445,-1.843 1.445,-1.843 h 40.903 c 0,0 3.015,0.644 4.547,0.808 1.617,0.168 4.562,-0.906 4.55,-2.32 v -3.625 c 0,-2.414 -1.945,-4.356 -4.355,-4.356 2.41,0 4.355,-1.945 4.355,-4.359 v -3.836 c -0.019,-1.684 -3.027,-2.008 -4.597,-1.988 -1.547,0.015 -4.594,0.687 -4.594,0.687 h -40.809 c 0,0 -1.445,-0.117 -1.445,-1.843 0,-1.727 1.445,-1.844 1.445,-1.844 h 40.903 c 0,0 3.015,0.644 4.547,0.804 1.617,0.172 4.562,-0.906 4.55,-2.32 v -3.621 c 0,-2.414 -1.945,-4.359 -4.355,-4.359 2.41,0 4.355,-1.942 4.355,-4.356 v -3.836 c -0.019,-1.683 -3.027,-2.008 -4.597,-1.992 -1.547,0.02 -4.594,0.688 -4.594,0.688 h -40.809 c 0,0 -1.445,-0.114 -1.445,-1.844 0,-1.727 1.445,-1.84 1.445,-1.84 h 40.903 c 0,0 3.015,0.645 4.547,0.805 1.617,0.168 4.562,-0.907 4.55,-2.321 v -3.625 c 0,-2.414 -1.945,-4.355 -4.355,-4.355 2.41,0 4.355,-1.945 4.355,-4.356 v -3.839 c -0.019,-1.6840002 -3.027,-2.0080002 -4.597,-1.9890002 -1.547,0.016 -4.594,0.688 -4.594,0.688 h -40.809 c 0,0 -1.445,-0.117 -1.445,-1.844 0,-1.726 1.445,-1.844 1.445,-1.844 h 40.903 c 0,0 3.015,0.645 4.547,0.809 1.617,0.168 4.562,-0.91 4.55,-2.32 v -3.625 c 0,-2.414 -1.945,-4.356 -4.355,-4.356 z"
       style="fill:#000000;stroke:none;stroke-width:0.56692916;stroke-linecap:butt;stroke-linejoin:round;stroke-miterlimit:4;stroke-dasharray:none;stroke-opacity:1;fill-opacity:1"
       id="path284"
       inkscape:connector-curvature="0" /><path
       d="m 722.328,177.40329 h 9.777 v 10.203 h -9.777 z"
       style="fill:#ff0000;stroke:none;stroke-width:0.56692916;stroke-linecap:butt;stroke-linejoin:round;stroke-miterlimit:4;stroke-dasharray:none;stroke-opacity:1;fill-opacity:1"
       id="path156"
       inkscape:connector-curvature="0" /><path
       d="m 722.328,144.44359 h 9.777 v 10.203 h -9.777 z"
       style="fill:#ff0000;stroke:none;stroke-width:0.56692916;stroke-linecap:butt;stroke-linejoin:round;stroke-miterlimit:4;stroke-dasharray:none;stroke-opacity:1;fill-opacity:1"
       id="path164"
       inkscape:connector-curvature="0" /><path
       d="m 722.328,210.359 h 9.777 v 10.207 h -9.777 z"
       style="fill:#ff0000;stroke:none;stroke-width:0.56692916;stroke-linecap:butt;stroke-linejoin:round;stroke-miterlimit:4;stroke-dasharray:none;stroke-opacity:1;fill-opacity:1"
       id="path168"
       inkscape:connector-curvature="0" /><path
       inkscape:connector-curvature="0"
       id="path1322"
       style="fill:#ff0000;stroke:none;stroke-width:0.56692916;stroke-linecap:butt;stroke-linejoin:round;stroke-miterlimit:4;stroke-dasharray:none;stroke-opacity:1;fill-opacity:1"
       d="m 722.328,111.48788 h 9.777 v 10.203 h -9.777 z" /><path
       inkscape:connector-curvature="0"
       id="path1327"
       style="fill:#ff0000;stroke:none;stroke-width:0.56692916;stroke-linecap:butt;stroke-linejoin:round;stroke-miterlimit:4;stroke-dasharray:none;stroke-opacity:1;fill-opacity:1"
       d="m 380.992,177.40329 h 9.777 v 10.203 h -9.777 z" /><path
       inkscape:connector-curvature="0"
       id="path1329"
       style="fill:#ff0000;stroke:none;stroke-width:0.56692916;stroke-linecap:butt;stroke-linejoin:round;stroke-miterlimit:4;stroke-dasharray:none;stroke-opacity:1;fill-opacity:1"
       d="m 380.992,144.44359 h 9.777 v 10.203 h -9.777 z" /><path
       inkscape:connector-curvature="0"
       id="path1331"
       style="fill:#ff0000;stroke:none;stroke-width:0.56692916;stroke-linecap:butt;stroke-linejoin:round;stroke-miterlimit:4;stroke-dasharray:none;stroke-opacity:1;fill-opacity:1"
       d="m 380.992,210.359 h 9.777 v 10.207 h -9.777 z" /><path
       d="m 380.992,111.48788 h 9.777 v 10.203 h -9.777 z"
       style="fill:#ff0000;stroke:none;stroke-width:0.56692916;stroke-linecap:butt;stroke-linejoin:round;stroke-miterlimit:4;stroke-dasharray:none;stroke-opacity:1;fill-opacity:1"
       id="path1333"
       inkscape:connector-curvature="0" /><path
       inkscape:connector-curvature="0"
       id="path1347"
       style="fill:#ff0000;stroke:none;stroke-width:0.56692916;stroke-linecap:butt;stroke-linejoin:round;stroke-miterlimit:4;stroke-dasharray:none;stroke-opacity:1;fill-opacity:1"
       d="m 551.66,177.40329 h 9.777 v 10.203 h -9.777 z" /><path
       inkscape:connector-curvature="0"
       id="path1349"
       style="fill:#ff0000;stroke:none;stroke-width:0.56692916;stroke-linecap:butt;stroke-linejoin:round;stroke-miterlimit:4;stroke-dasharray:none;stroke-opacity:1;fill-opacity:1"
       d="m 551.66,144.44359 h 9.777 v 10.203 h -9.777 z" /><path
       inkscape:connector-curvature="0"
       id="path1351"
       style="fill:#ff0000;stroke:none;stroke-width:0.56692916;stroke-linecap:butt;stroke-linejoin:round;stroke-miterlimit:4;stroke-dasharray:none;stroke-opacity:1;fill-opacity:1"
       d="m 551.66,210.359 h 9.777 v 10.207 h -9.777 z" /><path
       d="m 551.66,111.48788 h 9.777 v 10.203 h -9.777 z"
       style="fill:#ff0000;stroke:none;stroke-width:0.56692916;stroke-linecap:butt;stroke-linejoin:round;stroke-miterlimit:4;stroke-dasharray:none;stroke-opacity:1;fill-opacity:1"
       id="path1353"
       inkscape:connector-curvature="0" /><path
       sodipodi:nodetypes="ccccccccccccccccccssccccsccccscsccccsccccscsccccsccccscsccccsccccscsccccsccccscsccccsccccscsccccsccccscc"
       inkscape:connector-curvature="0"
       id="path1357"
       d="m 824.80401,105.25048 v 5.67042 h -9.35451 v 11.33935 h 9.35451 v 21.67529 h -9.35451 v 11.33936 h 9.35451 v 21.67529 h -9.35451 v 11.33936 h 9.35451 v 21.67529 h -9.35451 v 11.34083 h 9.35451 v 5.66748 h 54.47753 c 2.40997,0 4.35495,-1.94245 4.35495,-4.35645 v -3.83643 c -0.0187,-1.683 -3.02663,-1.7577 -4.59668,-1.74169 -1.54695,0.02 -4.59375,0.43798 -4.59375,0.43798 h -40.80907 c 0,0 -1.44578,-0.11424 -1.44578,-1.84423 0,-1.727 1.44578,-1.83985 1.44578,-1.83985 h 40.90282 c 0,0 3.01493,0.24576 4.54688,0.40577 1.617,0.168 4.5618,-0.50788 4.5498,-1.92188 v -3.62403 c 0,-0.44258 -0.066,-0.86974 -0.1875,-1.27148 0.12165,-0.40179 0.1875,-0.8289 0.1875,-1.27148 v -3.83643 c -0.0187,-1.683 -3.02663,-1.7577 -4.59668,-1.7417 -1.54695,0.02 -4.59375,0.43799 -4.59375,0.43799 h -40.80907 c 0,0 -1.44578,-0.11424 -1.44578,-1.84424 0,-1.727 1.44578,-1.83984 1.44578,-1.83984 h 40.90282 c 0,0 3.01493,0.24576 4.54688,0.40576 1.617,0.168 4.5618,-0.50788 4.5498,-1.92188 v -3.62402 c 0,-0.44258 -0.066,-0.86974 -0.1875,-1.27148 0.12187,-0.40217 0.1875,-0.82844 0.1875,-1.27149 v -3.83642 c -0.0187,-1.683 -3.02663,-1.7577 -4.59668,-1.74171 -1.54695,0.02 -4.59375,0.438 -4.59375,0.438 h -40.80907 c 0,0 -1.44578,-0.11424 -1.44578,-1.84425 0,-1.72699 1.44578,-1.83984 1.44578,-1.83984 h 40.90282 c 0,0 3.01493,0.24576 4.54688,0.40576 1.617,0.168 4.5618,-0.50787 4.5498,-1.92187 v -3.62403 c 0,-0.44258 -0.066,-0.86974 -0.1875,-1.27148 0.12187,-0.40216 0.1875,-0.82843 0.1875,-1.27148 v -3.83643 c -0.0187,-1.683 -3.02663,-1.75769 -4.59668,-1.7417 -1.54695,0.02 -4.59375,0.43799 -4.59375,0.43799 h -40.80907 c 0,0 -1.44578,-0.11423 -1.44578,-1.84424 0,-1.727 1.44578,-1.83984 1.44578,-1.83984 h 40.90282 c 0,0 3.01493,0.24576 4.54688,0.40576 1.617,0.168 4.5618,-0.50788 4.5498,-1.92187 v -3.62403 c 0,-0.44258 -0.066,-0.86974 -0.1875,-1.27148 0.12187,-0.40216 0.1875,-0.82844 0.1875,-1.27149 v -3.83642 c -0.0187,-1.683 -3.02663,-1.7577 -4.59668,-1.74171 -1.54695,0.02 -4.59375,0.438 -4.59375,0.438 h -40.80907 c 0,0 -1.44578,-0.11424 -1.44578,-1.84425 0,-1.72699 1.44578,-1.83984 1.44578,-1.83984 h 40.90282 c 0,0 3.01493,0.24576 4.54688,0.40576 1.617,0.168 4.5618,-0.50787 4.5498,-1.92187 v -3.62549 c 0,-0.44258 -0.066,-0.86828 -0.1875,-1.27002 0.12187,-0.40216 0.1875,-0.82843 0.1875,-1.27148 v -3.83643 c -0.0187,-1.683 -3.02663,-1.7577 -4.59668,-1.7417 -1.54695,0.02 -4.59375,0.43799 -4.59375,0.43799 h -40.80907 c 0,0 -1.44578,-0.11424 -1.44578,-1.84424 0,-1.727 1.44578,-1.83984 1.44578,-1.83984 h 40.90282 c 0,0 3.01493,0.24576 4.54688,0.40576 1.617,0.168 4.5618,-0.50788 4.5498,-1.92187 v -3.6255 c 0,-0.44258 -0.066,-0.86828 -0.1875,-1.27002 0.12187,-0.40215 0.1875,-0.82843 0.1875,-1.27148 v -3.83642 c -0.0187,-1.683 -3.02663,-1.7577 -4.59668,-1.7417 -1.54695,0.02 -4.59375,0.43799 -4.59375,0.43799 h -40.80907 c 0,0 -1.44578,-0.11424 -1.44578,-1.84424 0,-1.727 1.44578,-1.83984 1.44578,-1.83984 h 40.90282 c 0,0 3.01493,0.24576 4.54688,0.40575 1.617,0.168 4.5618,-0.50787 4.5498,-1.92187 v -3.62549 c 0,-2.414 -1.94498,-4.35498 -4.35495,-4.35498 z"
       style="fill:#000000;stroke:none;stroke-width:0.56692916;stroke-linecap:butt;stroke-linejoin:round;stroke-miterlimit:4;stroke-dasharray:none;stroke-opacity:1;fill-opacity:1" /><path
       style="fill:#000000;stroke:none;stroke-width:0.56692916;stroke-linecap:butt;stroke-linejoin:round;stroke-miterlimit:4;stroke-dasharray:none;stroke-opacity:1;fill-opacity:1"
       d="m 896.28865,105.25048 v 5.67042 h -9.35451 v 11.33935 h 9.35451 v 21.67529 h -9.35451 v 11.33936 h 9.35451 v 21.67529 h -9.35451 v 11.33936 h 9.35451 v 21.67529 h -9.35451 v 11.34083 h 9.35451 v 5.66748 h 54.47753 c 2.40997,0 4.35495,-1.94245 4.35495,-4.35645 v -3.83643 c -0.0187,-1.683 -3.02663,-1.7577 -4.59668,-1.74169 -1.54695,0.02 -4.59375,0.43798 -4.59375,0.43798 h -40.80907 c 0,0 -1.44578,-0.11424 -1.44578,-1.84423 0,-1.727 1.44578,-1.83985 1.44578,-1.83985 h 40.90282 c 0,0 3.01493,0.24576 4.54688,0.40577 1.617,0.168 4.5618,-0.50788 4.5498,-1.92188 v -3.62403 c 0,-0.44258 -0.066,-0.86974 -0.1875,-1.27148 0.12165,-0.40179 0.1875,-0.8289 0.1875,-1.27148 v -3.83643 c -0.0187,-1.683 -3.02663,-1.7577 -4.59668,-1.7417 -1.54695,0.02 -4.59375,0.43799 -4.59375,0.43799 h -40.80907 c 0,0 -1.44578,-0.11424 -1.44578,-1.84424 0,-1.727 1.44578,-1.83984 1.44578,-1.83984 h 40.90282 c 0,0 3.01493,0.24576 4.54688,0.40576 1.617,0.168 4.5618,-0.50788 4.5498,-1.92188 v -3.62402 c 0,-0.44258 -0.066,-0.86974 -0.1875,-1.27148 0.12187,-0.40217 0.1875,-0.82844 0.1875,-1.27149 v -3.83642 c -0.0187,-1.683 -3.02663,-1.7577 -4.59668,-1.74171 -1.54695,0.02 -4.59375,0.438 -4.59375,0.438 h -40.80907 c 0,0 -1.44578,-0.11424 -1.44578,-1.84425 0,-1.72699 1.44578,-1.83984 1.44578,-1.83984 h 40.90282 c 0,0 3.01493,0.24576 4.54688,0.40576 1.617,0.168 4.5618,-0.50787 4.5498,-1.92187 v -3.62403 c 0,-0.44258 -0.066,-0.86974 -0.1875,-1.27148 0.12187,-0.40216 0.1875,-0.82843 0.1875,-1.27148 v -3.83643 c -0.0187,-1.683 -3.02663,-1.75769 -4.59668,-1.7417 -1.54695,0.02 -4.59375,0.43799 -4.59375,0.43799 h -40.80907 c 0,0 -1.44578,-0.11423 -1.44578,-1.84424 0,-1.727 1.44578,-1.83984 1.44578,-1.83984 h 40.90282 c 0,0 3.01493,0.24576 4.54688,0.40576 1.617,0.168 4.5618,-0.50788 4.5498,-1.92187 v -3.62403 c 0,-0.44258 -0.066,-0.86974 -0.1875,-1.27148 0.12187,-0.40216 0.1875,-0.82844 0.1875,-1.27149 v -3.83642 c -0.0187,-1.683 -3.02663,-1.7577 -4.59668,-1.74171 -1.54695,0.02 -4.59375,0.438 -4.59375,0.438 h -40.80907 c 0,0 -1.44578,-0.11424 -1.44578,-1.84425 0,-1.72699 1.44578,-1.83984 1.44578,-1.83984 h 40.90282 c 0,0 3.01493,0.24576 4.54688,0.40576 1.617,0.168 4.5618,-0.50787 4.5498,-1.92187 v -3.62549 c 0,-0.44258 -0.066,-0.86828 -0.1875,-1.27002 0.12187,-0.40216 0.1875,-0.82843 0.1875,-1.27148 v -3.83643 c -0.0187,-1.683 -3.02663,-1.7577 -4.59668,-1.7417 -1.54695,0.02 -4.59375,0.43799 -4.59375,0.43799 h -40.80907 c 0,0 -1.44578,-0.11424 -1.44578,-1.84424 0,-1.727 1.44578,-1.83984 1.44578,-1.83984 h 40.90282 c 0,0 3.01493,0.24576 4.54688,0.40576 1.617,0.168 4.5618,-0.50788 4.5498,-1.92187 v -3.6255 c 0,-0.44258 -0.066,-0.86828 -0.1875,-1.27002 0.12187,-0.40215 0.1875,-0.82843 0.1875,-1.27148 v -3.83642 c -0.0187,-1.683 -3.02663,-1.7577 -4.59668,-1.7417 -1.54695,0.02 -4.59375,0.43799 -4.59375,0.43799 h -40.80907 c 0,0 -1.44578,-0.11424 -1.44578,-1.84424 0,-1.727 1.44578,-1.83984 1.44578,-1.83984 h 40.90282 c 0,0 3.01493,0.24576 4.54688,0.40575 1.617,0.168 4.5618,-0.50787 4.5498,-1.92187 v -3.62549 c 0,-2.414 -1.94498,-4.35498 -4.35495,-4.35498 z"
       id="path1359"
       inkscape:connector-curvature="0"
       sodipodi:nodetypes="ccccccccccccccccccssccccsccccscsccccsccccscsccccsccccscsccccsccccscsccccsccccscsccccsccccscsccccsccccscc" /><path
       d="m 349.469,142.328 h 9.781 v 10.207 h -9.781 z"
       style="fill:#ff0000;stroke:none;stroke-width:0.56692916;stroke-linecap:butt;stroke-linejoin:round;stroke-miterlimit:4;stroke-dasharray:none;stroke-opacity:1;fill-opacity:1"
       id="path16"
       inkscape:connector-curvature="0" /><path
       d="m 349.469,165.008 h 9.781 v 10.203 h -9.781 z"
       style="fill:#ff0000;stroke:none;stroke-width:0.56692916;stroke-linecap:butt;stroke-linejoin:round;stroke-miterlimit:4;stroke-dasharray:none;stroke-opacity:1;fill-opacity:1"
       id="path20"
       inkscape:connector-curvature="0" /><path
       d="m 349.469,96.973 h 9.781 v 10.207 h -9.781 z"
       style="fill:#ff0000;stroke:none;stroke-width:0.56692916;stroke-linecap:butt;stroke-linejoin:round;stroke-miterlimit:4;stroke-dasharray:none;stroke-opacity:1;fill-opacity:1"
       id="path24"
       inkscape:connector-curvature="0" /><path
       d="m 349.469,119.652 h 9.781 v 10.203 h -9.781 z"
       style="fill:#ff0000;stroke:none;stroke-width:0.56692916;stroke-linecap:butt;stroke-linejoin:round;stroke-miterlimit:4;stroke-dasharray:none;stroke-opacity:1;fill-opacity:1"
       id="path28"
       inkscape:connector-curvature="0" /><path
       d="m 349.469,210.359 h 9.781 v 10.207 h -9.781 z"
       style="fill:#ff0000;stroke:none;stroke-width:0.56692916;stroke-linecap:butt;stroke-linejoin:round;stroke-miterlimit:4;stroke-dasharray:none;stroke-opacity:1;fill-opacity:1"
       id="path32"
       inkscape:connector-curvature="0" /><path
       d="m 349.469,187.684 h 9.781 v 10.203 h -9.781 z"
       style="fill:#ff0000;stroke:none;stroke-width:0.56692916;stroke-linecap:butt;stroke-linejoin:round;stroke-miterlimit:4;stroke-dasharray:none;stroke-opacity:1;fill-opacity:1"
       id="path36"
       inkscape:connector-curvature="0" /><path
       d="m 349.469,6.266 h 9.781 v 10.203 h -9.781 z"
       style="fill:#ff0000;stroke:none;stroke-width:0.56692916;stroke-linecap:butt;stroke-linejoin:round;stroke-miterlimit:4;stroke-dasharray:none;stroke-opacity:1;fill-opacity:1"
       id="path40"
       inkscape:connector-curvature="0" /><path
       d="m 349.469,28.941 h 9.781 v 10.207 h -9.781 z"
       style="fill:#ff0000;stroke:none;stroke-width:0.56692916;stroke-linecap:butt;stroke-linejoin:round;stroke-miterlimit:4;stroke-dasharray:none;stroke-opacity:1;fill-opacity:1"
       id="path44"
       inkscape:connector-curvature="0" /><path
       d="m 349.469,51.621 h 9.781 v 10.203 h -9.781 z"
       style="fill:#ff0000;stroke:none;stroke-width:0.56692916;stroke-linecap:butt;stroke-linejoin:round;stroke-miterlimit:4;stroke-dasharray:none;stroke-opacity:1;fill-opacity:1"
       id="path48"
       inkscape:connector-curvature="0" /><path
       d="m 349.469,74.297 h 9.781 V 84.5 h -9.781 z"
       style="fill:#ff0000;stroke:none;stroke-width:0.56692916;stroke-linecap:butt;stroke-linejoin:round;stroke-miterlimit:4;stroke-dasharray:none;stroke-opacity:1;fill-opacity:1"
       id="path52"
       inkscape:connector-curvature="0" /><path
       d="m 178.805,142.328 h 9.777 v 10.207 h -9.777 z"
       style="fill:#ff0000;stroke:none;stroke-width:0.56692916;stroke-linecap:butt;stroke-linejoin:round;stroke-miterlimit:4;stroke-dasharray:none;stroke-opacity:1;fill-opacity:1"
       id="path56"
       inkscape:connector-curvature="0" /><path
       d="m 178.805,165.008 h 9.777 v 10.203 h -9.777 z"
       style="fill:#ff0000;stroke:none;stroke-width:0.56692916;stroke-linecap:butt;stroke-linejoin:round;stroke-miterlimit:4;stroke-dasharray:none;stroke-opacity:1;fill-opacity:1"
       id="path60"
       inkscape:connector-curvature="0" /><path
       d="m 178.805,96.973 h 9.777 v 10.207 h -9.777 z"
       style="fill:#ff0000;stroke:none;stroke-width:0.56692916;stroke-linecap:butt;stroke-linejoin:round;stroke-miterlimit:4;stroke-dasharray:none;stroke-opacity:1;fill-opacity:1"
       id="path64"
       inkscape:connector-curvature="0" /><path
       d="m 178.805,119.652 h 9.777 v 10.203 h -9.777 z"
       style="fill:#ff0000;stroke:none;stroke-width:0.56692916;stroke-linecap:butt;stroke-linejoin:round;stroke-miterlimit:4;stroke-dasharray:none;stroke-opacity:1;fill-opacity:1"
       id="path68"
       inkscape:connector-curvature="0" /><path
       d="m 178.805,210.359 h 9.777 v 10.207 h -9.777 z"
       style="fill:#ff0000;stroke:none;stroke-width:0.56692916;stroke-linecap:butt;stroke-linejoin:round;stroke-miterlimit:4;stroke-dasharray:none;stroke-opacity:1;fill-opacity:1"
       id="path72"
       inkscape:connector-curvature="0" /><path
       d="m 178.805,187.684 h 9.777 v 10.203 h -9.777 z"
       style="fill:#ff0000;stroke:none;stroke-width:0.56692916;stroke-linecap:butt;stroke-linejoin:round;stroke-miterlimit:4;stroke-dasharray:none;stroke-opacity:1;fill-opacity:1"
       id="path76"
       inkscape:connector-curvature="0" /><path
       d="m 178.805,6.266 h 9.777 v 10.203 h -9.777 z"
       style="fill:#ff0000;stroke:none;stroke-width:0.56692916;stroke-linecap:butt;stroke-linejoin:round;stroke-miterlimit:4;stroke-dasharray:none;stroke-opacity:1;fill-opacity:1"
       id="path80"
       inkscape:connector-curvature="0" /><path
       d="m 178.805,28.941 h 9.777 v 10.207 h -9.777 z"
       style="fill:#ff0000;stroke:none;stroke-width:0.56692916;stroke-linecap:butt;stroke-linejoin:round;stroke-miterlimit:4;stroke-dasharray:none;stroke-opacity:1;fill-opacity:1"
       id="path84"
       inkscape:connector-curvature="0" /><path
       d="m 178.805,51.621 h 9.777 v 10.203 h -9.777 z"
       style="fill:#ff0000;stroke:none;stroke-width:0.56692916;stroke-linecap:butt;stroke-linejoin:round;stroke-miterlimit:4;stroke-dasharray:none;stroke-opacity:1;fill-opacity:1"
       id="path88"
       inkscape:connector-curvature="0" /><path
       d="m 178.805,74.297 h 9.777 V 84.5 h -9.777 z"
       style="fill:#ff0000;stroke:none;stroke-width:0.56692916;stroke-linecap:butt;stroke-linejoin:round;stroke-miterlimit:4;stroke-dasharray:none;stroke-opacity:1;fill-opacity:1"
       id="path92"
       inkscape:connector-curvature="0" /><path
       d="m 8.137,142.328 h 9.777 v 10.207 H 8.137 Z"
       style="fill:#ff0000;stroke:none;stroke-width:0.56692916;stroke-linecap:butt;stroke-linejoin:round;stroke-miterlimit:4;stroke-dasharray:none;stroke-opacity:1;fill-opacity:1"
       id="path96"
       inkscape:connector-curvature="0" /><path
       d="m 8.137,165.008 h 9.777 v 10.203 H 8.137 Z"
       style="fill:#ff0000;stroke:none;stroke-width:0.56692916;stroke-linecap:butt;stroke-linejoin:round;stroke-miterlimit:4;stroke-dasharray:none;stroke-opacity:1;fill-opacity:1"
       id="path100"
       inkscape:connector-curvature="0" /><path
       d="m 8.137,96.973 h 9.777 V 107.18 H 8.137 Z"
       style="fill:#ff0000;stroke:none;stroke-width:0.56692916;stroke-linecap:butt;stroke-linejoin:round;stroke-miterlimit:4;stroke-dasharray:none;stroke-opacity:1;fill-opacity:1"
       id="path104"
       inkscape:connector-curvature="0" /><path
       d="m 8.137,119.652 h 9.777 v 10.203 H 8.137 Z"
       style="fill:#ff0000;stroke:none;stroke-width:0.56692916;stroke-linecap:butt;stroke-linejoin:round;stroke-miterlimit:4;stroke-dasharray:none;stroke-opacity:1;fill-opacity:1"
       id="path108"
       inkscape:connector-curvature="0" /><path
       d="m 8.137,210.359 h 9.777 v 10.207 H 8.137 Z"
       style="fill:#ff0000;stroke:none;stroke-width:0.56692916;stroke-linecap:butt;stroke-linejoin:round;stroke-miterlimit:4;stroke-dasharray:none;stroke-opacity:1;fill-opacity:1"
       id="path112"
       inkscape:connector-curvature="0" /><path
       d="m 8.137,187.684 h 9.777 v 10.203 H 8.137 Z"
       style="fill:#ff0000;stroke:none;stroke-width:0.56692916;stroke-linecap:butt;stroke-linejoin:round;stroke-miterlimit:4;stroke-dasharray:none;stroke-opacity:1;fill-opacity:1"
       id="path116"
       inkscape:connector-curvature="0" /><path
       d="m 8.137,6.266 h 9.777 V 16.469 H 8.137 Z"
       style="fill:#ff0000;stroke:none;stroke-width:0.56692916;stroke-linecap:butt;stroke-linejoin:round;stroke-miterlimit:4;stroke-dasharray:none;stroke-opacity:1;fill-opacity:1"
       id="path120"
       inkscape:connector-curvature="0" /><path
       d="m 8.137,28.941 h 9.777 V 39.148 H 8.137 Z"
       style="fill:#ff0000;stroke:none;stroke-width:0.56692916;stroke-linecap:butt;stroke-linejoin:round;stroke-miterlimit:4;stroke-dasharray:none;stroke-opacity:1;fill-opacity:1"
       id="path124"
       inkscape:connector-curvature="0" /><path
       d="m 8.137,51.621 h 9.777 V 61.824 H 8.137 Z"
       style="fill:#ff0000;stroke:none;stroke-width:0.56692916;stroke-linecap:butt;stroke-linejoin:round;stroke-miterlimit:4;stroke-dasharray:none;stroke-opacity:1;fill-opacity:1"
       id="path128"
       inkscape:connector-curvature="0" /><path
       d="m 8.137,74.297 h 9.777 V 84.5 H 8.137 Z"
       style="fill:#ff0000;stroke:none;stroke-width:0.56692916;stroke-linecap:butt;stroke-linejoin:round;stroke-miterlimit:4;stroke-dasharray:none;stroke-opacity:1;fill-opacity:1"
       id="path132"
       inkscape:connector-curvature="0" /></g></svg>